{
  "asset": {
    "version": "2.0",
    "generator": "THREE.GLTFExporter r180"
  },
  "scenes": [
    {
      "name": "AuxScene",
      "nodes": [
        0
      ]
    }
  ],
  "scene": 0,
  "nodes": [
    {
      "matrix": [
        1,
        0,
        0,
        0,
        0,
        1,
        0,
        0,
        0,
        0,
        1,
        0,
        25.232070922851562,
        -853.4142913818359,
        -35.9870605468752,
        1
      ],
      "extras": {
        "unitScaleFactor": 1
      },
      "children": [
        1,
        2,
        3,
        4
      ]
    },
    {
      "matrix": [
        1,
        0,
        0,
        0,
        0,
        2.220446049250313e-16,
        -1,
        0,
        0,
        1,
        2.220446049250313e-16,
        0,
        0,
        0,
        0,
        1
      ],
      "name": "SM_Autumn_02_LOD2",
      "extras": {
        "originalName": "SM_Autumn_02_LOD2",
        "transformData": {
          "inheritType": 1,
          "eulerOrder": "ZYX",
          "rotation": [
            -90,
            0,
            0
          ],
          "parentMatrix": {
            "elements": [
              1,
              0,
              0,
              0,
              0,
              1,
              0,
              0,
              0,
              0,
              1,
              0,
              25.232070922851562,
              -853.4142913818359,
              -35.9870605468752,
              1
            ]
          },
          "parentMatrixWorld": {
            "elements": [
              1,
              0,
              0,
              0,
              0,
              1,
              0,
              0,
              0,
              0,
              1,
              0,
              0,
              0,
              0,
              1
            ]
          }
        }
      },
      "mesh": 0
    },
    {
      "matrix": [
        1,
        0,
        0,
        0,
        0,
        2.220446049250313e-16,
        -1,
        0,
        0,
        1,
        2.220446049250313e-16,
        0,
        0,
        0,
        0,
        1
      ],
      "name": "SM_Autumn_02_LOD1",
      "extras": {
        "originalName": "SM_Autumn_02_LOD1",
        "transformData": {
          "inheritType": 1,
          "eulerOrder": "ZYX",
          "rotation": [
            -90,
            0,
            0
          ],
          "parentMatrix": {
            "elements": [
              1,
              0,
              0,
              0,
              0,
              1,
              0,
              0,
              0,
              0,
              1,
              0,
              25.232070922851562,
              -853.4142913818359,
              -35.9870605468752,
              1
            ]
          },
          "parentMatrixWorld": {
            "elements": [
              1,
              0,
              0,
              0,
              0,
              1,
              0,
              0,
              0,
              0,
              1,
              0,
              0,
              0,
              0,
              1
            ]
          }
        }
      },
      "mesh": 1
    },
    {
      "matrix": [
        1,
        0,
        0,
        0,
        0,
        2.220446049250313e-16,
        -1,
        0,
        0,
        1,
        2.220446049250313e-16,
        0,
        0,
        0,
        0,
        1
      ],
      "name": "SM_Autumn_02",
      "extras": {
        "originalName": "SM_Autumn_02",
        "transformData": {
          "inheritType": 1,
          "eulerOrder": "ZYX",
          "rotation": [
            -90,
            0,
            0
          ],
          "parentMatrix": {
            "elements": [
              1,
              0,
              0,
              0,
              0,
              1,
              0,
              0,
              0,
              0,
              1,
              0,
              25.232070922851562,
              -853.4142913818359,
              -35.9870605468752,
              1
            ]
          },
          "parentMatrixWorld": {
            "elements": [
              1,
              0,
              0,
              0,
              0,
              1,
              0,
              0,
              0,
              0,
              1,
              0,
              0,
              0,
              0,
              1
            ]
          }
        }
      },
      "mesh": 2
    },
    {
      "matrix": [
        1,
        0,
        0,
        0,
        0,
        2.220446049250313e-16,
        -1,
        0,
        0,
        1,
        2.220446049250313e-16,
        0,
        0,
        0,
        0,
        1
      ],
      "name": "UCX_SM_Autumn_02_LOD0",
      "extras": {
        "originalName": "UCX_SM_Autumn_02_LOD0",
        "transformData": {
          "inheritType": 1,
          "eulerOrder": "ZYX",
          "rotation": [
            -90,
            0,
            0
          ],
          "parentMatrix": {
            "elements": [
              1,
              0,
              0,
              0,
              0,
              1,
              0,
              0,
              0,
              0,
              1,
              0,
              25.232070922851562,
              -853.4142913818359,
              -35.9870605468752,
              1
            ]
          },
          "parentMatrixWorld": {
            "elements": [
              1,
              0,
              0,
              0,
              0,
              1,
              0,
              0,
              0,
              0,
              1,
              0,
              0,
              0,
              0,
              1
            ]
          }
        }
      },
      "mesh": 3
    }
  ],
  "bufferViews": [
    {
      "buffer": 0,
      "byteOffset": 0,
      "byteLength": 15732,
      "target": 34962,
      "byteStride": 12
    },
    {
      "buffer": 0,
      "byteOffset": 15732,
      "byteLength": 15732,
      "target": 34962,
      "byteStride": 12
    },
    {
      "buffer": 0,
      "byteOffset": 31464,
      "byteLength": 10488,
      "target": 34962,
      "byteStride": 8
    },
    {
      "buffer": 0,
      "byteOffset": 41952,
      "byteLength": 10488,
      "target": 34962,
      "byteStride": 8
    },
    {
      "buffer": 0,
      "byteOffset": 52440,
      "byteLength": 10488,
      "target": 34962,
      "byteStride": 8
    },
    {
      "buffer": 0,
      "byteOffset": 62928,
      "byteLength": 10488,
      "target": 34962,
      "byteStride": 8
    },
    {
      "buffer": 0,
      "byteOffset": 73416,
      "byteLength": 10488,
      "target": 34962,
      "byteStride": 8
    },
    {
      "buffer": 0,
      "byteOffset": 83904,
      "byteLength": 10488,
      "target": 34962,
      "byteStride": 8
    },
    {
      "buffer": 0,
      "byteOffset": 94392,
      "byteLength": 26208,
      "target": 34962,
      "byteStride": 12
    },
    {
      "buffer": 0,
      "byteOffset": 120600,
      "byteLength": 26208,
      "target": 34962,
      "byteStride": 12
    },
    {
      "buffer": 0,
      "byteOffset": 146808,
      "byteLength": 17472,
      "target": 34962,
      "byteStride": 8
    },
    {
      "buffer": 0,
      "byteOffset": 164280,
      "byteLength": 17472,
      "target": 34962,
      "byteStride": 8
    },
    {
      "buffer": 0,
      "byteOffset": 181752,
      "byteLength": 17472,
      "target": 34962,
      "byteStride": 8
    },
    {
      "buffer": 0,
      "byteOffset": 199224,
      "byteLength": 17472,
      "target": 34962,
      "byteStride": 8
    },
    {
      "buffer": 0,
      "byteOffset": 216696,
      "byteLength": 17472,
      "target": 34962,
      "byteStride": 8
    },
    {
      "buffer": 0,
      "byteOffset": 234168,
      "byteLength": 17472,
      "target": 34962,
      "byteStride": 8
    },
    {
      "buffer": 0,
      "byteOffset": 251640,
      "byteLength": 52416,
      "target": 34962,
      "byteStride": 12
    },
    {
      "buffer": 0,
      "byteOffset": 304056,
      "byteLength": 52416,
      "target": 34962,
      "byteStride": 12
    },
    {
      "buffer": 0,
      "byteOffset": 356472,
      "byteLength": 34944,
      "target": 34962,
      "byteStride": 8
    },
    {
      "buffer": 0,
      "byteOffset": 391416,
      "byteLength": 34944,
      "target": 34962,
      "byteStride": 8
    },
    {
      "buffer": 0,
      "byteOffset": 426360,
      "byteLength": 34944,
      "target": 34962,
      "byteStride": 8
    },
    {
      "buffer": 0,
      "byteOffset": 461304,
      "byteLength": 34944,
      "target": 34962,
      "byteStride": 8
    },
    {
      "buffer": 0,
      "byteOffset": 496248,
      "byteLength": 27936,
      "target": 34962,
      "byteStride": 12
    },
    {
      "buffer": 0,
      "byteOffset": 524184,
      "byteLength": 27936,
      "target": 34962,
      "byteStride": 12
    }
  ],
  "buffers": [
    {
      "byteLength": 552120,
      "uri": "data:application/octet-stream;base64,"
    }
  ],
  "accessors": [
    {
      "bufferView": 0,
      "componentType": 5126,
      "count": 1311,
      "max": [
        312.74859619140625,
        364.88385009765625,
        1753.1978759765625
      ],
      "min": [
        -363.2127380371094,
        -436.85797119140625,
        -11.869500160217285
      ],
      "type": "VEC3"
    },
    {
      "bufferView": 1,
      "componentType": 5126,
      "count": 1311,
      "max": [
        0.9845877885818481,
        0.9843740463256836,
        0.9977138638496399
      ],
      "min": [
        -0.9972215890884399,
        -0.9902551770210266,
        -0.5522091388702393
      ],
      "type": "VEC3"
    },
    {
      "bufferView": 2,
      "componentType": 5126,
      "count": 1311,
      "max": [
        1.0322265625,
        1.251220703125
      ],
      "min": [
        -0.002262115478515625,
        -1.60546875
      ],
      "type": "VEC2"
    },
    {
      "bufferView": 3,
      "componentType": 5126,
      "count": 1311,
      "max": [
        0.98974609375,
        0.9919357299804688
      ],
      "min": [
        0.00798797607421875,
        0.0107421875
      ],
      "type": "VEC2"
    },
    {
      "bufferView": 4,
      "componentType": 5126,
      "count": 1311,
      "max": [
        0.54345703125,
        1.251220703125
      ],
      "min": [
        -0.002262115478515625,
        -1.60546875
      ],
      "type": "VEC2"
    },
    {
      "bufferView": 5,
      "componentType": 5126,
      "count": 1311,
      "max": [
        0.9921875,
        0.9919357299804688
      ],
      "min": [
        0.00798797607421875,
        0.01318359375
      ],
      "type": "VEC2"
    },
    {
      "bufferView": 6,
      "componentType": 5126,
      "count": 1311,
      "max": [
        0.9912109375,
        0.9919357299804688
      ],
      "min": [
        0.00806427001953125,
        0.00927734375
      ],
      "type": "VEC2"
    },
    {
      "bufferView": 7,
      "componentType": 5126,
      "count": 1311,
      "max": [
        0.9912109375,
        0.9919357299804688
      ],
      "min": [
        0.00806427001953125,
        0.00927734375
      ],
      "type": "VEC2"
    },
    {
      "bufferView": 8,
      "componentType": 5126,
      "count": 2184,
      "max": [
        312.74859619140625,
        364.88385009765625,
        1753.1978759765625
      ],
      "min": [
        -363.2127380371094,
        -436.85797119140625,
        -11.391961097717285
      ],
      "type": "VEC3"
    },
    {
      "bufferView": 9,
      "componentType": 5126,
      "count": 2184,
      "max": [
        0.9861798882484436,
        0.9969757795333862,
        0.9977138638496399
      ],
      "min": [
        -0.9972215890884399,
        -0.9943788051605225,
        -0.8243221640586853
      ],
      "type": "VEC3"
    },
    {
      "bufferView": 10,
      "componentType": 5126,
      "count": 2184,
      "max": [
        1,
        2.6494140625
      ],
      "min": [
        -0.002262115478515625,
        -1.60546875
      ],
      "type": "VEC2"
    },
    {
      "bufferView": 11,
      "componentType": 5126,
      "count": 2184,
      "max": [
        0.9921875,
        0.99200439453125
      ],
      "min": [
        0.00798797607421875,
        0.0107421875
      ],
      "type": "VEC2"
    },
    {
      "bufferView": 12,
      "componentType": 5126,
      "count": 2184,
      "max": [
        0.55224609375,
        2.6494140625
      ],
      "min": [
        -0.002262115478515625,
        -1.60546875
      ],
      "type": "VEC2"
    },
    {
      "bufferView": 13,
      "componentType": 5126,
      "count": 2184,
      "max": [
        0.9921875,
        0.99200439453125
      ],
      "min": [
        0.00798797607421875,
        0.01318359375
      ],
      "type": "VEC2"
    },
    {
      "bufferView": 14,
      "componentType": 5126,
      "count": 2184,
      "max": [
        0.99169921875,
        0.9919357299804688
      ],
      "min": [
        0.00806427001953125,
        0.00830078125
      ],
      "type": "VEC2"
    },
    {
      "bufferView": 15,
      "componentType": 5126,
      "count": 2184,
      "max": [
        0.99169921875,
        0.9919357299804688
      ],
      "min": [
        0.00806427001953125,
        0.00830078125
      ],
      "type": "VEC2"
    },
    {
      "bufferView": 16,
      "componentType": 5126,
      "count": 4368,
      "max": [
        312.74859619140625,
        364.88385009765625,
        1753.1978759765625
      ],
      "min": [
        -363.2127380371094,
        -436.85797119140625,
        -9.632205963134766
      ],
      "type": "VEC3"
    },
    {
      "bufferView": 17,
      "componentType": 5126,
      "count": 4368,
      "max": [
        0.9954643845558167,
        0.9995972514152527,
        0.9977138638496399
      ],
      "min": [
        -0.9972215890884399,
        -0.9988858699798584,
        -0.913612425327301
      ],
      "type": "VEC3"
    },
    {
      "bufferView": 18,
      "componentType": 5126,
      "count": 4368,
      "max": [
        1,
        2.5849609375
      ],
      "min": [
        0,
        -1.625
      ],
      "type": "VEC2"
    },
    {
      "bufferView": 19,
      "componentType": 5126,
      "count": 4368,
      "max": [
        0.9921875,
        0.9919357299804688
      ],
      "min": [
        0.00806427001953125,
        0.009765625
      ],
      "type": "VEC2"
    },
    {
      "bufferView": 20,
      "componentType": 5126,
      "count": 4368,
      "max": [
        0.52392578125,
        2.5849609375
      ],
      "min": [
        0,
        -1.625
      ],
      "type": "VEC2"
    },
    {
      "bufferView": 21,
      "componentType": 5126,
      "count": 4368,
      "max": [
        0.9921875,
        0.9919357299804688
      ],
      "min": [
        0.00806427001953125,
        0.01318359375
      ],
      "type": "VEC2"
    },
    {
      "bufferView": 22,
      "componentType": 5126,
      "count": 2328,
      "max": [
        28.482393264770508,
        108.61056518554688,
        1015.4508056640625
      ],
      "min": [
        -82.71861267089844,
        -74.96551513671875,
        -46.369293212890625
      ],
      "type": "VEC3"
    },
    {
      "bufferView": 23,
      "componentType": 5126,
      "count": 2328,
      "max": [
        1,
        0.999495267868042,
        0.999495267868042
      ],
      "min": [
        -1,
        -0.999495267868042,
        -0.999495267868042
      ],
      "type": "VEC3"
    }
  ],
  "materials": [
    {
      "pbrMetallicRoughness": {
        "baseColorFactor": [
          0.03826341449602265,
          0.03826341449602265,
          0.03826341449602265,
          1
        ],
        "metallicFactor": 0,
        "roughnessFactor": 1
      },
      "name": "MI_Autumn_01"
    },
    {
      "pbrMetallicRoughness": {
        "baseColorFactor": [
          0.13286832572150142,
          0.13286832572150142,
          0.13286832572150142,
          1
        ],
        "metallicFactor": 0,
        "roughnessFactor": 1
      },
      "name": "lambert1"
    }
  ],
  "meshes": [
    {
      "primitives": [
        {
          "mode": 4,
          "attributes": {
            "POSITION": 0,
            "NORMAL": 1,
            "TEXCOORD_0": 2,
            "TEXCOORD_1": 3,
            "TEXCOORD_2": 4,
            "TEXCOORD_3": 5,
            "_UV4": 6,
            "_UV5": 7
          },
          "material": 0
        }
      ]
    },
    {
      "primitives": [
        {
          "mode": 4,
          "attributes": {
            "POSITION": 8,
            "NORMAL": 9,
            "TEXCOORD_0": 10,
            "TEXCOORD_1": 11,
            "TEXCOORD_2": 12,
            "TEXCOORD_3": 13,
            "_UV4": 14,
            "_UV5": 15
          },
          "material": 0
        }
      ]
    },
    {
      "primitives": [
        {
          "mode": 4,
          "attributes": {
            "POSITION": 16,
            "NORMAL": 17,
            "TEXCOORD_0": 18,
            "TEXCOORD_1": 19,
            "TEXCOORD_2": 20,
            "TEXCOORD_3": 21
          },
          "material": 0
        }
      ]
    },
    {
      "primitives": [
        {
          "mode": 4,
          "attributes": {
            "POSITION": 22,
            "NORMAL": 23
          },
          "material": 1
        }
      ]
    }
  ]
}